<svg id="Layer_1" data-name="Layer 1" xmlns="http://www.w3.org/2000/svg" viewBox="0 0 575.88 651.19"><defs><style>.cls-1,.cls-2{fill:#21409a;stroke:#21409a;stroke-miterlimit:10;stroke-width:2px}.cls-2{fill:#fff}</style></defs><rect class="cls-1" x="28.05" y="95.2" width="518.04" height="290.07" rx="32.01"/><path class="cls-1" d="M518.61 473.73l-17.39-113.89-105.53 18.77"/><path class="cls-2" d="M349.64 128.48l-42.47 9.38 28.77 35 13.7-44.38zm-14.53 196.95l22.47 19 67.09-53.92L287.07 132l-137.6 158.47 64.83 53.92 21.87-19.09"/><path class="cls-2" d="M314.08 187.76h-55.96l-39.58 48.15v68.1l39.58 48.15h55.96l39.57-48.15v-68.1l-39.57-48.15z"/><path class="cls-2" d="M267.92 251.34l-32.75-7.23 10.57-19.77 22.18 27zm18.18 36.85l-11.54-21.57h23.08l-11.54 21.57zm0 0v18.25s10.58 17.83 27.61 15m-27.61-15s-10.59 17.83-27.62 15m43.88-70.7l32.75-7.23-10.58-19.77-22.17 27zm-76.52-122.43l42.47 9.39-28.77 34.99-13.7-44.38z"/><text transform="matrix(.93 0 0 1 25.97 590.35)" font-size="132.83" font-family="RobotoSlab-Bold,Roboto Slab" font-weight="700" fill="#21409a">LionCh<tspan x="449.92" y="0" letter-spacing="-.04em">a</tspan><tspan x="517.7" y="0">t</tspan></text></svg>